<svg width="59" height="71" viewBox="0 0 59 71" fill="none" xmlns="http://www.w3.org/2000/svg">
<path d="M29.1831 1.16773C28.7401 1.16667 28.3337 1.41582 28.1367 1.81195C28.1367 1.81211 28.1366 1.81228 28.1365 1.81244L26.9211 4.23476L24.2203 4.62259L24.22 4.62264C23.7791 4.68656 23.4117 4.99377 23.2741 5.41672C23.1365 5.83989 23.2535 6.30347 23.5747 6.61199L25.5243 8.48481L25.0638 11.1322C25.0638 11.1325 25.0637 11.1329 25.0637 11.1332C24.9846 11.5701 25.1632 12.0127 25.5225 12.2744C25.8818 12.5362 26.3596 12.5718 26.7541 12.3668L29.1814 11.1094L31.6101 12.367L31.6102 12.3671C32.0044 12.5708 32.4809 12.5351 32.84 12.2745C33.1993 12.0138 33.3792 11.5724 33.3023 11.1357L32.8416 8.48636L34.7897 6.61498C34.7899 6.61482 34.7901 6.61466 34.7902 6.6145C35.1147 6.30585 35.2324 5.83916 35.0918 5.41444C34.9554 4.99081 34.5872 4.6834 34.1457 4.62149C34.1455 4.62147 34.1453 4.62145 34.1452 4.62143L31.4398 4.23372L30.2296 1.81426C30.2295 1.81412 30.2294 1.81398 30.2293 1.81384C30.0327 1.41721 29.6265 1.16735 29.1831 1.16773ZM29.1831 1.16773C29.1833 1.16773 29.1835 1.16773 29.1837 1.16773L29.183 1.41773L29.1826 1.16773C29.1828 1.16773 29.183 1.16773 29.1831 1.16773ZM33.1783 6.03118L30.8181 5.69153C30.818 5.69152 30.818 5.69152 30.818 5.69151C30.5682 5.65564 30.3512 5.50011 30.2384 5.27419C30.2384 5.27417 30.2384 5.27415 30.2384 5.27412L29.1805 3.15639L28.1186 5.27491C28.0056 5.50055 27.7886 5.65579 27.539 5.69153L27.5392 5.6915L27.5035 5.44406L27.5389 5.69155L33.1783 6.03118ZM33.1783 6.03118L31.4796 7.66392C31.2962 7.83993 31.212 8.09518 31.2557 8.34571L31.6585 10.6626L29.5398 9.56458L29.5397 9.56457C29.3168 9.44906 29.0512 9.44905 28.8283 9.56455C28.8283 9.56456 28.8283 9.56456 28.8282 9.56457L26.7089 10.6623L27.1118 8.34591C27.1118 8.34583 27.1118 8.34574 27.1118 8.34566C27.1118 8.34564 27.1118 8.34563 27.1118 8.34561L33.1783 6.03118ZM25.1865 6.03094L24.9576 5.81136L24.6437 5.85665L24.8726 6.07622L25.1865 6.03094ZM29.0409 2.87696L29.1809 2.59773L29.3205 2.87716L29.0409 2.87696Z" fill="url(#paint0_linear_59_9547)" stroke="url(#paint1_linear_59_9547)" stroke-width="0.5"/>
<path d="M25.0229 34.2263V34.4763H24.0694C23.7371 34.4763 23.4677 34.1986 23.4677 33.8561V29.7756C23.4652 27.8412 24.621 26.1056 26.3734 25.4124M25.0229 34.2263H25.2729V30.9601C25.2729 30.6176 25.5423 30.34 25.8746 30.34C26.2069 30.34 26.4763 30.6176 26.4763 30.9601V34.2263H26.7263M25.0229 34.2263H24.0694C23.8822 34.2263 23.7177 34.0677 23.7177 33.8561L23.7177 29.7756L23.7177 29.7753C23.7154 27.9862 24.7571 26.382 26.3413 25.6962M25.0229 34.2263V30.9601C25.0229 30.4867 25.3971 30.09 25.8746 30.09C26.352 30.09 26.7263 30.4867 26.7263 30.9601V34.2263M26.7263 34.2263V34.4763H32.2436V34.2263M26.7263 34.2263H32.2436M32.2436 34.2263H32.4936V30.9601C32.4936 30.6176 32.763 30.34 33.0954 30.34C33.4277 30.34 33.6971 30.6176 33.6971 30.9601V34.2263H33.9471M32.2436 34.2263V30.9601C32.2436 30.4867 32.6179 30.09 33.0954 30.09C33.5728 30.09 33.9471 30.4867 33.9471 30.9601V34.2263M33.9471 34.2263V34.4763H34.9006C35.2329 34.4763 35.5023 34.1986 35.5023 33.8561V29.7756C35.5048 27.8412 34.349 26.1056 32.5965 25.4124M33.9471 34.2263H34.9006C35.0878 34.2263 35.2523 34.0677 35.2523 33.8561V29.7756V29.7753C35.2546 27.9862 34.2128 26.382 32.6287 25.6963M32.5965 25.4124C30.7324 26.7735 28.2376 26.7735 26.3734 25.4124M32.5965 25.4124L32.744 25.6143C32.7058 25.6422 32.6674 25.6695 32.6287 25.6963M32.5965 25.4124L32.5046 25.6448C32.5463 25.6614 32.5877 25.6785 32.6287 25.6963M26.3734 25.4124L26.4654 25.6448C26.4237 25.6614 26.3823 25.6785 26.3413 25.6962M26.3734 25.4124L26.226 25.6143C26.2642 25.6422 26.3026 25.6695 26.3413 25.6962M26.3413 25.6962C28.2413 27.0122 30.7287 27.0122 32.6287 25.6963M36.9558 29.776C36.962 27.5604 35.8126 25.5173 33.9558 24.4176C35.7307 22.071 35.5083 18.6973 33.3945 16.6206C31.2052 14.4699 27.76 14.4699 25.5707 16.6206C23.4568 18.6973 23.2344 22.0713 25.0095 24.4178C23.1545 25.5187 22.0071 27.5615 22.0142 29.776V33.8561C22.0142 35.0145 22.9273 35.9665 24.0694 35.9665H34.9006C36.0427 35.9665 36.9558 35.0145 36.9558 33.8561L36.9558 29.7764L36.7058 29.7756H36.9558V29.776ZM29.4852 16.761C31.6663 16.7611 33.4471 18.5854 33.4471 20.8519C33.4471 23.1184 31.6662 24.9428 29.485 24.9428C27.3038 24.9428 25.5229 23.1185 25.5229 20.852C25.5255 18.5865 27.305 16.7636 29.4852 16.761Z" fill="url(#paint2_linear_59_9547)" stroke="url(#paint3_linear_59_9547)" stroke-width="0.5"/>
<path d="M57.2441 24.4696C56.5206 24.1901 55.713 24.2283 55.0193 24.5749C54.3521 24.9048 53.8509 25.4967 53.6354 26.2092L52.9934 28.3633C52.5574 29.953 51.6387 31.3681 50.3646 32.4132C49.7473 32.9052 49.2056 33.4853 48.7575 34.1348C48.0944 35.089 47.2283 35.8834 46.221 36.4614L45.7391 36.7368C45.1929 36.3115 44.5199 36.0824 43.8275 36.086C42.8183 36.0774 41.8708 36.5716 41.2999 37.4043L38.0458 42.1082C36.6047 42.5101 31.613 44.1984 29.485 48.5148C27.3574 44.1984 22.3657 42.5101 20.9247 42.1082L17.6813 37.416C17.1104 36.5761 16.1579 36.077 15.1425 36.086C14.4505 36.0824 13.7775 36.3115 13.2313 36.7368L12.7584 36.4672C11.7435 35.887 10.8702 35.0877 10.203 34.1272C9.75578 33.4808 9.2159 32.9034 8.60088 32.4141C7.3263 31.3686 6.4076 29.9526 5.97209 28.3624L5.33008 26.2092C5.11547 25.4976 4.61653 24.9061 3.95112 24.5749C3.25737 24.2274 2.44889 24.1892 1.725 24.4696C0.678519 24.8791 -0.00758507 25.8919 6.32963e-05 27.0162V30.5561C0.00186291 31.7642 0.293851 32.9542 0.852182 34.0259L2.65405 37.5146C3.04187 38.2658 3.54981 38.949 4.15763 39.5368L9.42555 44.6224C13.1202 48.5877 18.3233 54.9642 18.3233 56.7339C18.1366 58.0036 17.6871 59.2207 17.0033 60.3068C16.5241 61.2078 16.5552 62.2953 17.0856 63.1671C17.63 64.065 18.6072 64.6096 19.6568 64.5997H25.5537C26.6857 64.6123 27.7272 63.9818 28.241 62.9726C28.7552 61.9037 29.1714 60.7911 29.485 59.6474C29.799 60.7911 30.2152 61.9037 30.7294 62.9726C31.2432 63.9818 32.2843 64.6123 33.4162 64.5997H39.3136C40.3632 64.6096 41.3409 64.0655 41.8857 63.1671C42.4157 62.2953 42.4472 61.2078 41.968 60.3068C41.2842 59.2207 40.8343 58.0036 40.6471 56.7339C40.6471 54.9642 45.8502 48.5877 49.5093 44.6598L54.8168 39.5368C55.4229 38.9486 55.9294 38.2653 56.3164 37.5146L58.1119 34.0349C58.673 32.9623 58.9676 31.7705 58.9699 30.5598V27.0202C58.9798 25.8941 58.2928 24.8791 57.2441 24.4696ZM26.4814 62.0887C26.3006 62.4312 25.9411 62.6423 25.5537 62.6333H19.6568C19.2956 62.6432 18.9563 62.4591 18.7674 62.1503C18.5933 61.8672 18.5843 61.5121 18.744 61.2204C19.5943 59.8625 20.1225 58.3277 20.2889 56.7339C20.2889 53.5581 12.4368 44.9703 10.827 43.2438L5.51994 38.1213C5.06463 37.6829 4.68446 37.1729 4.39428 36.6117L2.59691 33.1221C2.18345 32.3313 1.96704 31.4523 1.96569 30.5598V27.0202C1.95805 26.7155 2.13576 26.4369 2.41515 26.3154C2.51323 26.2762 2.61806 26.2555 2.72378 26.2533C2.84571 26.2528 2.96628 26.2812 3.07561 26.3361C3.25512 26.4225 3.39099 26.5791 3.45083 26.7695L4.09194 28.921C4.64217 30.9009 5.79393 32.6608 7.38794 33.957C7.84999 34.3252 8.2549 34.7591 8.59008 35.2452C9.42106 36.4438 10.5085 37.4426 11.7736 38.1681L12.1736 38.3972C12.1164 38.6186 12.0863 38.8464 12.0831 39.075C12.0872 39.4045 12.1439 39.7317 12.2514 40.0432C12.4881 40.708 12.713 41.4259 12.8997 42.1132C13.3532 43.8109 14.2584 45.3534 15.5191 46.5772C15.5443 46.6019 15.5712 46.6253 15.5996 46.6469L20.7397 50.6289C21.1694 50.9615 21.7867 50.8827 22.1192 50.4533C22.4516 50.024 22.3733 49.406 21.9437 49.0734L16.8467 45.1256C15.8605 44.1543 15.1528 42.9359 14.7979 41.5978C14.6013 40.8592 14.3556 40.0945 14.11 39.4081C14.0717 39.301 14.0506 39.1885 14.047 39.075C14.047 38.8882 14.1041 38.706 14.2112 38.5529C14.2188 38.5408 14.2197 38.5282 14.2278 38.5165C14.2355 38.5043 14.2562 38.4818 14.2679 38.4625C14.4996 38.2077 14.8307 38.0677 15.1744 38.0799C15.5182 38.0916 15.8394 38.2536 16.0526 38.5232L19.5133 43.5278C19.6555 43.733 19.8701 43.8766 20.1139 43.9302C20.459 44.0049 28.5024 45.8368 28.5024 52.801C28.5069 56.0061 27.8185 59.1743 26.4846 62.0887H26.4814ZM57.0043 30.5598C57.0029 31.4541 56.7856 32.3349 56.3703 33.1271L54.573 36.6117C54.2823 37.1729 53.9017 37.6829 53.4464 38.1213L48.107 43.2811C46.5341 44.9703 38.6815 53.5581 38.6815 56.7339C38.8475 58.3277 39.3761 59.8625 40.2264 61.2204C40.3862 61.5121 40.3772 61.8672 40.203 62.1503C40.0141 62.4591 39.6749 62.6432 39.3136 62.6333H33.4162C33.028 62.6432 32.6676 62.4321 32.4858 62.0887C31.1519 59.1743 30.4635 56.0061 30.468 52.801C30.468 45.8368 38.5114 44.0049 38.8547 43.9302C39.0981 43.8766 39.3127 43.733 39.4549 43.5278L42.9232 38.5133C43.1288 38.2334 43.4523 38.0637 43.7996 38.0538C44.1469 38.0439 44.4794 38.1951 44.7003 38.4634C44.712 38.4827 44.7286 38.4985 44.7408 38.5174C44.7525 38.5358 44.7493 38.5417 44.7574 38.5538C44.8641 38.7069 44.9212 38.8891 44.9216 39.0759C44.9185 39.1813 44.9 39.2857 44.8663 39.3856C44.6148 40.0954 44.375 40.8605 44.1716 41.6027C43.8162 42.9395 43.109 44.1566 42.1232 45.1265L37.0263 49.0743C36.5975 49.4073 36.5192 50.0258 36.8526 50.4547C37.1855 50.8841 37.8033 50.962 38.2325 50.6289L43.3726 46.6469C43.401 46.6253 43.428 46.6019 43.4532 46.5772C44.7129 45.3547 45.6181 43.8131 46.0716 42.1168C46.2592 41.4286 46.4842 40.708 46.728 40.0207C46.8315 39.716 46.8859 39.3968 46.8891 39.075C46.8859 38.8464 46.8558 38.6186 46.7986 38.3972L47.2076 38.1622C48.4669 37.4394 49.5494 36.4451 50.3772 35.252C50.7142 34.7632 51.1209 34.3266 51.5852 33.9561C53.1783 32.6608 54.3296 30.9018 54.8794 28.9228L55.5214 26.7695C55.5812 26.5791 55.7171 26.4225 55.8966 26.3361C56.1031 26.2348 56.3429 26.2258 56.5562 26.3113C56.836 26.4329 57.0137 26.7115 57.0065 27.0162L57.0043 30.5598Z" fill="url(#paint4_linear_59_9547)"/>
<path d="M42.397 15.553L40.5918 17.659C40.3571 17.9237 40.2633 18.3151 40.3459 18.6834C40.4281 19.0517 40.6748 19.339 40.9905 19.4354C41.3062 19.5318 41.6417 19.4219 41.8681 19.1481L43.6734 17.042C44.0155 16.6289 44.0106 15.9724 43.6626 15.566C43.3143 15.1596 42.7515 15.1543 42.397 15.553Z" fill="url(#paint5_linear_59_9547)"/>
<path d="M42.1216 21.5761C42.1216 22.0744 42.593 22.4785 43.1749 22.4785H45.2809C45.8623 22.4785 46.3337 22.0744 46.3337 21.5761C46.3337 21.0774 45.8623 20.6733 45.2809 20.6733H43.1749C42.593 20.6733 42.1216 21.0774 42.1216 21.5761Z" fill="url(#paint6_linear_59_9547)"/>
<path d="M17.7486 19.4697C18.1146 19.4697 18.4449 19.2125 18.585 18.8179C18.7251 18.4233 18.6476 17.9688 18.3885 17.6665L16.5777 15.5539C16.2225 15.154 15.658 15.1593 15.3086 15.567C14.9593 15.9746 14.9547 16.6332 15.2975 17.0476L17.1082 19.1602C17.2782 19.3585 17.5086 19.4697 17.7486 19.4697Z" fill="url(#paint7_linear_59_9547)"/>
<path d="M12.6362 21.5761C12.6362 22.0744 13.1077 22.4785 13.6895 22.4785H15.7956C16.3769 22.4785 16.8484 22.0744 16.8484 21.5761C16.8484 21.0774 16.3769 20.6733 15.7956 20.6733H13.6895C13.1077 20.6733 12.6362 21.0774 12.6362 21.5761Z" fill="url(#paint8_linear_59_9547)"/>
<defs>
<linearGradient id="paint0_linear_59_9547" x1="35.6478" y1="13.3737" x2="16.7217" y2="10.4508" gradientUnits="userSpaceOnUse">
<stop stop-color="#0B3F37"/>
<stop offset="0.969562" stop-color="#CB8D62"/>
</linearGradient>
<linearGradient id="paint1_linear_59_9547" x1="24.6582" y1="3.64768" x2="32.0325" y2="3.29196" gradientUnits="userSpaceOnUse">
<stop stop-color="#847153"/>
<stop offset="1" stop-color="#395242"/>
</linearGradient>
<linearGradient id="paint2_linear_59_9547" x1="37.6501" y1="37.8411" x2="13.4315" y2="35.3399" gradientUnits="userSpaceOnUse">
<stop stop-color="#0B3F37"/>
<stop offset="0.969562" stop-color="#CB8D62"/>
</linearGradient>
<linearGradient id="paint3_linear_59_9547" x1="23.7685" y1="19.4697" x2="33.0954" y2="19.1688" gradientUnits="userSpaceOnUse">
<stop stop-color="#847153"/>
<stop offset="1" stop-color="#395242"/>
</linearGradient>
<linearGradient id="paint4_linear_59_9547" x1="62.8257" y1="68.7866" x2="-32.7443" y2="48.3337" gradientUnits="userSpaceOnUse">
<stop stop-color="#0B3F37"/>
<stop offset="0.969562" stop-color="#CB8D62"/>
</linearGradient>
<linearGradient id="paint5_linear_59_9547" x1="44.1629" y1="19.9071" x2="38.1384" y2="19.1516" gradientUnits="userSpaceOnUse">
<stop stop-color="#0B3F37"/>
<stop offset="0.969562" stop-color="#CB8D62"/>
</linearGradient>
<linearGradient id="paint6_linear_59_9547" x1="46.6091" y1="22.666" x2="40.2153" y2="20.4832" gradientUnits="userSpaceOnUse">
<stop stop-color="#0B3F37"/>
<stop offset="0.969562" stop-color="#CB8D62"/>
</linearGradient>
<linearGradient id="paint7_linear_59_9547" x1="18.8899" y1="19.9071" x2="12.8655" y2="19.1516" gradientUnits="userSpaceOnUse">
<stop stop-color="#0B3F37"/>
<stop offset="0.969562" stop-color="#CB8D62"/>
</linearGradient>
<linearGradient id="paint8_linear_59_9547" x1="17.1238" y1="22.666" x2="10.7299" y2="20.4832" gradientUnits="userSpaceOnUse">
<stop stop-color="#0B3F37"/>
<stop offset="0.969562" stop-color="#CB8D62"/>
</linearGradient>
</defs>
</svg>
