<svg width="59" height="60" viewBox="0 0 59 60" fill="none" xmlns="http://www.w3.org/2000/svg">
<path d="M57.2952 0.380031L53.0756 4.59963V1.07494C53.0755 0.677462 52.836 0.319156 52.4688 0.167058C52.1015 0.0149599 51.6789 0.0990118 51.3977 0.380031L45.5003 6.27745C45.316 6.46173 45.2124 6.7117 45.2123 6.97236V12.4629L42.9045 14.7707C38.9331 11.0809 33.8879 8.7546 28.503 8.13022V5.98946C30.1315 5.98946 31.4517 4.66927 31.4517 3.04075C31.4517 1.41222 30.1315 0.092041 28.503 0.092041H22.6056C20.9771 0.092041 19.6569 1.41222 19.6569 3.04075C19.6569 4.66927 20.9771 5.98946 22.6056 5.98946V8.13022C17.9032 8.67437 13.446 10.52 9.73547 13.4595L8.04586 11.7689C6.86019 10.6532 5.01095 10.6532 3.82528 11.7689C3.26342 12.3296 2.94767 13.0908 2.94767 13.8846C2.94767 14.6784 3.26342 15.4396 3.82528 16.0003L5.50998 17.686C-2.92785 28.3573 -1.52654 43.7683 8.69765 52.7426C18.9218 61.717 34.3845 61.1084 43.8717 51.3583C53.3589 41.6081 53.5447 26.1347 44.2943 16.1595L46.6022 13.8527H52.0927C52.3533 13.8526 52.6033 13.749 52.7876 13.5647L58.685 7.66727C58.966 7.38616 59.0501 6.96348 58.898 6.59625C58.7459 6.22902 58.3876 5.98954 57.9901 5.98946H54.4654L58.685 1.76986C59.0575 1.38419 59.0522 0.771143 58.673 0.392005C58.2939 0.0128659 57.6808 0.00753875 57.2952 0.380031ZM47.1782 7.37928L51.1098 3.44767V6.56544L47.1782 10.497V7.37928ZM21.6227 3.04075C21.6227 2.49791 22.0628 2.05785 22.6056 2.05785H28.503C29.0458 2.05785 29.4859 2.49791 29.4859 3.04075C29.4859 3.58359 29.0458 4.02365 28.503 4.02365H22.6056C22.0628 4.02365 21.6227 3.58359 21.6227 3.04075ZM24.5714 5.98946H26.5372V7.97983C26.2109 7.96804 25.8836 7.95526 25.5543 7.95526C25.225 7.95526 24.8977 7.96804 24.5714 7.97983V5.98946ZM5.21609 14.6125C5.02128 14.4193 4.91227 14.156 4.91357 13.8817C4.91486 13.6074 5.02635 13.3451 5.22297 13.1538C5.41178 12.9659 5.66922 12.8632 5.93557 12.8698C6.20564 12.867 6.46541 12.9733 6.65604 13.1646L8.23458 14.7373C7.7333 15.2006 7.25135 15.6825 6.78873 16.1831L5.21609 14.6125ZM49.144 33.5107C49.1597 44.6915 41.3349 54.352 30.3947 56.6588C19.4545 58.9656 8.39536 53.2867 3.8955 43.0514C-0.604357 32.8161 2.68756 20.8279 11.7834 14.326C20.8792 7.82404 33.2876 8.58925 41.5156 16.1595L40.1258 17.5494C31.4368 9.61562 18.0022 10.0733 9.87325 18.58C1.7443 27.0867 1.89689 40.5282 10.2169 48.8482C18.5368 57.1681 31.9783 57.3207 40.485 49.1918C48.9917 41.0628 49.4494 27.6282 41.5156 18.9392L42.9055 17.5494C46.92 21.8949 49.1478 27.5947 49.144 33.5107ZM28.503 33.5107C28.503 35.1392 27.1828 36.4594 25.5543 36.4594C23.9258 36.4594 22.6056 35.1392 22.6056 33.5107C22.6056 31.8822 23.9258 30.562 25.5543 30.562C25.9921 30.5642 26.4238 30.665 26.8173 30.8569L24.8594 32.8148C24.6039 33.0616 24.5014 33.4271 24.5914 33.7707C24.6813 34.1144 24.9497 34.3827 25.2933 34.4727C25.637 34.5626 26.0024 34.4602 26.2492 34.2047L28.2081 32.2477C28.4005 32.641 28.5013 33.0728 28.503 33.5107ZM28.2602 29.415C26.1496 28.018 23.3239 28.4466 21.7224 30.4067C20.121 32.3667 20.2643 35.2212 22.0541 37.0109C23.8439 38.8007 26.6983 38.944 28.6584 37.3426C30.6184 35.7412 31.0471 32.9155 29.6501 30.8048L32.4592 27.9957C35.3981 31.6722 34.9531 37.0043 31.4452 40.1427C27.9374 43.2812 22.5889 43.1327 19.2606 39.8044C15.9324 36.4761 15.7839 31.1276 18.9223 27.6198C22.0607 24.112 27.3928 23.6669 31.0694 26.6058L28.2602 29.415ZM32.468 25.2072C28.0198 21.502 21.4441 21.9509 17.5406 26.2262C13.6372 30.5015 13.7869 37.0909 17.8805 41.1845C21.9741 45.2781 28.5635 45.4278 32.8388 41.5244C37.1142 37.621 37.563 31.0452 33.8579 26.597L36.6365 23.8183C41.8916 29.823 41.438 38.9132 35.6113 44.365C29.7846 49.8167 20.6843 49.6654 15.0419 44.0231C9.39959 38.3808 9.24834 29.2805 14.7001 23.4537C20.1518 17.627 29.242 17.1734 35.2467 22.4285L32.468 25.2072ZM36.6365 21.0387C29.8578 15.0117 19.5156 15.4668 13.2926 22.0659C7.06947 28.665 7.22122 39.0161 13.6351 45.43C20.0489 51.8438 30.4 51.9955 36.9991 45.7725C43.5982 39.5494 44.0533 29.2072 38.0263 22.4285L40.1101 20.3447C47.2816 28.2958 46.8039 40.5153 39.0336 47.8823C31.2633 55.2493 19.0358 55.0756 11.4778 47.4908C3.91992 39.9061 3.78954 27.678 11.184 19.9338C18.5785 12.1897 30.7996 11.7553 38.7252 18.9549L36.6365 21.0387ZM55.6173 7.95526L51.6857 11.8869H48.568L52.4996 7.95526H55.6173Z" fill="url(#paint0_linear_58_9513)"/>
<defs>
<linearGradient id="paint0_linear_58_9513" x1="62.8287" y1="65.219" x2="-35.0302" y2="50.9076" gradientUnits="userSpaceOnUse">
<stop stop-color="#0B3F37"/>
<stop offset="0.969562" stop-color="#CB8D62"/>
</linearGradient>
</defs>
</svg>
