<svg width="59" height="52" viewBox="0 0 59 52" fill="none" xmlns="http://www.w3.org/2000/svg">
<path d="M28.7092 44.2439C28.8954 44.452 29.1816 44.5737 29.4847 44.5737C29.7878 44.5737 30.0739 44.452 30.2601 44.2439L50.8996 21.1473C51.13 20.8895 51.1715 20.54 51.0067 20.2465C50.9885 20.2189 50.9681 20.1923 50.9458 20.167H50.9537L44.0738 10.7573C43.8888 10.5176 43.576 10.3767 43.2443 10.3835V10.3569H15.725V10.3835C15.3943 10.3757 15.0818 10.515 14.8955 10.753L8.01571 20.1627H8.02357C8.00124 20.188 7.98089 20.2146 7.96264 20.2423C7.79785 20.5357 7.83941 20.8852 8.06977 21.143L28.7092 44.2439ZM31.2754 12.0678H41.4536L36.3645 19.0284L31.2754 12.0678ZM34.5738 19.7666H24.3956L29.4847 12.806L34.5738 19.7666ZM22.6049 19.0284L17.5158 12.0678H27.694L22.6049 19.0284ZM10.8551 21.4775H21.851L27.6733 40.2969L10.8551 21.4775ZM31.3334 40.2567L34.4971 30.2884C34.6261 29.8382 34.3193 29.3806 33.8055 29.2569C33.2917 29.1332 32.7583 29.3886 32.6032 29.8325L29.4984 39.6126L23.8875 21.4775H35.0917L33.8789 25.5399C33.7757 25.8401 33.8693 26.1655 34.1229 26.3879C34.3765 26.6103 34.7496 26.6942 35.0953 26.6066C35.441 26.5189 35.7039 26.2738 35.7807 25.9677L37.1242 21.4775H48.1143L31.3334 40.2567ZM48.3334 19.7666H38.1552L43.2443 12.806L48.3334 19.7666ZM15.725 12.806L20.8141 19.7666H10.6359L15.725 12.806Z" fill="url(#paint0_linear_58_9484)"/>
<path d="M0.982832 26.6105H3.93133C4.47413 26.6105 4.91416 26.2275 4.91416 25.7551C4.91416 25.2826 4.47413 24.8997 3.93133 24.8997H0.982832C0.440029 24.8997 0 25.2826 0 25.7551C0 26.2275 0.440029 26.6105 0.982832 26.6105Z" fill="url(#paint1_linear_58_9484)"/>
<path d="M55.0385 26.6105H57.987C58.5298 26.6105 58.9698 26.2275 58.9698 25.7551C58.9698 25.2826 58.5298 24.8997 57.987 24.8997H55.0385C54.4957 24.8997 54.0557 25.2826 54.0557 25.7551C54.0557 26.2275 54.4957 26.6105 55.0385 26.6105Z" fill="url(#paint2_linear_58_9484)"/>
<path d="M30.4681 50.5623V47.9961C30.4681 47.5236 30.0281 47.1406 29.4853 47.1406C28.9425 47.1406 28.5024 47.5236 28.5024 47.9961V50.5623C28.5024 51.0348 28.9425 51.4178 29.4853 51.4178C30.0281 51.4178 30.4681 51.0348 30.4681 50.5623Z" fill="url(#paint3_linear_58_9484)"/>
<path d="M29.4853 4.36918C30.0281 4.36918 30.4681 3.9862 30.4681 3.51376V0.94747C30.4681 0.47503 30.0281 0.092041 29.4853 0.092041C28.9425 0.092041 28.5024 0.47503 28.5024 0.94747V3.51376C28.5024 3.9862 28.9425 4.36918 29.4853 4.36918Z" fill="url(#paint4_linear_58_9484)"/>
<path d="M10.7207 40.8771L8.63612 42.6923C8.37061 42.905 8.26037 43.2272 8.34894 43.5317C8.43751 43.8362 8.71066 44.0739 9.06047 44.151C9.41028 44.2281 9.78049 44.1321 10.0249 43.901L12.1095 42.0867C12.4819 41.751 12.4766 41.2175 12.0975 40.8875C11.7184 40.5575 11.1054 40.5529 10.7197 40.8771H10.7207Z" fill="url(#paint5_linear_58_9484)"/>
<path d="M47.5544 10.8832C47.8151 10.8832 48.065 10.793 48.2493 10.6326L50.3339 8.81739C50.5994 8.60469 50.7096 8.28247 50.621 7.978C50.5325 7.67354 50.2593 7.4358 49.9095 7.35871C49.5597 7.28162 49.1895 7.37757 48.9451 7.60866L46.8605 9.42303C46.5795 9.66768 46.4955 10.0355 46.6476 10.3552C46.7997 10.6748 47.158 10.8832 47.5554 10.8832H47.5544Z" fill="url(#paint6_linear_58_9484)"/>
<path d="M49.6388 44.1517C50.0363 44.1516 50.3946 43.9432 50.5467 43.6236C50.6987 43.304 50.6147 42.9361 50.3337 42.6915L48.2491 40.8771C47.8635 40.5529 47.2505 40.5575 46.8714 40.8875C46.4922 41.2175 46.4869 41.751 46.8594 42.0867L48.945 43.901C49.129 44.0613 49.3785 44.1514 49.6388 44.1517Z" fill="url(#paint7_linear_58_9484)"/>
<path d="M10.7207 10.6326C11.1063 10.9568 11.7193 10.9522 12.0985 10.6222C12.4776 10.2922 12.4829 9.75868 12.1104 9.42303L10.0249 7.60866C9.78049 7.37757 9.41028 7.28162 9.06047 7.35871C8.71066 7.4358 8.43751 7.67354 8.34894 7.978C8.26037 8.28247 8.37061 8.60469 8.63612 8.81739L10.7207 10.6326Z" fill="url(#paint8_linear_58_9484)"/>
<defs>
<linearGradient id="paint0_linear_58_9484" x1="53.9341" y1="48.127" x2="-16.9358" y2="35.0223" gradientUnits="userSpaceOnUse">
<stop stop-color="#0B3F37"/>
<stop offset="0.969562" stop-color="#CB8D62"/>
</linearGradient>
<linearGradient id="paint1_linear_58_9484" x1="5.23547" y1="26.7882" x2="-1.84321" y2="23.8133" gradientUnits="userSpaceOnUse">
<stop stop-color="#0B3F37"/>
<stop offset="0.969562" stop-color="#CB8D62"/>
</linearGradient>
<linearGradient id="paint2_linear_58_9484" x1="59.2911" y1="26.7882" x2="52.2125" y2="23.8133" gradientUnits="userSpaceOnUse">
<stop stop-color="#0B3F37"/>
<stop offset="0.969562" stop-color="#CB8D62"/>
</linearGradient>
<linearGradient id="paint3_linear_58_9484" x1="30.5966" y1="51.8619" x2="27.2801" y2="51.6389" gradientUnits="userSpaceOnUse">
<stop stop-color="#0B3F37"/>
<stop offset="0.969562" stop-color="#CB8D62"/>
</linearGradient>
<linearGradient id="paint4_linear_58_9484" x1="30.5966" y1="4.81335" x2="27.2801" y2="4.59034" gradientUnits="userSpaceOnUse">
<stop stop-color="#0B3F37"/>
<stop offset="0.969562" stop-color="#CB8D62"/>
</linearGradient>
<linearGradient id="paint5_linear_58_9484" x1="12.6512" y1="44.5448" x2="5.94833" y2="43.4183" gradientUnits="userSpaceOnUse">
<stop stop-color="#0B3F37"/>
<stop offset="0.969562" stop-color="#CB8D62"/>
</linearGradient>
<linearGradient id="paint6_linear_58_9484" x1="50.9178" y1="11.252" x2="44.1953" y2="10.1222" gradientUnits="userSpaceOnUse">
<stop stop-color="#0B3F37"/>
<stop offset="0.969562" stop-color="#CB8D62"/>
</linearGradient>
<linearGradient id="paint7_linear_58_9484" x1="50.8855" y1="44.5167" x2="44.2297" y2="43.3978" gradientUnits="userSpaceOnUse">
<stop stop-color="#0B3F37"/>
<stop offset="0.969562" stop-color="#CB8D62"/>
</linearGradient>
<linearGradient id="paint8_linear_58_9484" x1="12.6523" y1="11.2404" x2="5.94785" y2="10.1133" gradientUnits="userSpaceOnUse">
<stop stop-color="#0B3F37"/>
<stop offset="0.969562" stop-color="#CB8D62"/>
</linearGradient>
</defs>
</svg>
