<svg width="42" height="42" viewBox="0 0 42 42" fill="none" xmlns="http://www.w3.org/2000/svg">
<g clip-path="url(#clip0_33_101)">
<path d="M13.3 42.0001H28.7C29.8598 42.0001 30.8 41.0599 30.8 39.9001V35.6777C34.3563 32.761 36.4126 28.3996 36.4 23.8001C36.4699 19.8947 34.9469 16.129 32.1818 13.3701L33.4075 12.1444C33.6752 12.2744 33.9688 12.3424 34.2664 12.3432H34.3427C34.953 12.3398 35.5308 12.0679 35.9226 11.5998V11.5963C36.6139 10.7292 36.5355 9.47928 35.7413 8.70534L32.83 5.79124C32.4515 5.40542 31.9354 5.18562 31.395 5.18014H31.3173C30.7697 5.18131 30.2453 5.40163 29.8613 5.79194C29.233 6.42199 29.0688 7.37899 29.4511 8.18244L27.685 9.94854C27.016 9.61494 26.3232 9.33136 25.6123 9.10014C24.1675 3.50014 17.752 0.782035 15.8088 0.079235C15.2971 -0.102352 14.7266 0.0261751 14.3423 0.409635L13.027 1.70324C12.7497 1.97242 12.5953 2.34374 12.6 2.73014C12.6039 3.11846 12.7654 3.48854 13.0473 3.75564C14.6196 5.20305 15.7453 7.0698 16.2918 9.13584C10.9308 10.8573 6.93668 15.3673 5.87586 20.897C4.81504 26.4267 6.85663 32.0946 11.2 35.6777V39.9001C11.2 40.4571 11.4212 40.9912 11.815 41.3851C12.2089 41.7789 12.743 42.0001 13.3 42.0001ZM30.3576 9.25624C30.6334 9.51458 31.0646 9.50727 31.3315 9.23974C31.5985 8.97221 31.6049 8.54106 31.346 8.26574L30.8511 7.77084C30.5792 7.49773 30.5792 7.05624 30.8511 6.78314C30.9798 6.65147 31.1569 6.57836 31.3411 6.58084H31.3551C31.5386 6.57315 31.7163 6.64662 31.8409 6.78174L34.7529 9.69374C35.0322 9.9543 35.0753 10.3815 34.8537 10.6926C34.7241 10.8633 34.5172 10.957 34.3035 10.9418C34.1212 10.9493 33.9449 10.8764 33.8212 10.7423L33.3263 10.2474C33.0509 9.98851 32.6198 9.9949 32.3523 10.2619C32.0847 10.5288 32.0774 10.96 32.3358 11.2358L29.981 13.5892C29.6297 13.9534 29.1093 14.0997 28.6197 13.972C28.1302 13.8442 27.7476 13.4622 27.6192 12.9728C27.4907 12.4834 27.6363 11.9628 28 11.611L30.3576 9.25624ZM6.99996 23.8001C6.98612 17.7133 10.9169 12.3189 16.7153 10.4672C17.4262 10.2442 17.8406 9.50618 17.661 8.78304C17.0297 6.45713 15.7649 4.35221 14.0077 2.70284L15.3433 1.40014C17.1122 2.04064 22.9831 4.51304 24.2571 9.45364C24.376 9.92294 24.7305 10.2966 25.193 10.4399C25.7014 10.6034 26.1996 10.7974 26.6847 11.0209C25.8843 12.2134 26.116 13.8181 27.2209 14.7355C28.3258 15.6529 29.9457 15.5856 30.9708 14.5797L31.1927 14.3578C33.6902 16.8584 35.0645 20.2665 35 23.8001C35.0103 28.0895 33.0426 32.1441 29.6667 34.7901L29.6632 34.7943C28.8396 35.4441 27.9457 35.9994 26.9983 36.4498C26.7663 36.5534 26.6087 36.7745 26.5864 37.0275C26.5641 37.2806 26.6806 37.5258 26.8909 37.6684C27.1011 37.8109 27.3721 37.8284 27.5989 37.714C28.2212 37.4173 28.8229 37.0792 29.4 36.7018V39.9001C29.4 40.2867 29.0866 40.6001 28.7 40.6001H13.3C12.9134 40.6001 12.6 40.2867 12.6 39.9001V36.7025C13.1763 37.0811 13.7775 37.4202 14.3997 37.7175C14.7468 37.8726 15.1543 37.7222 15.3174 37.3788C15.4806 37.0354 15.3398 36.6245 15.0003 36.4533C14.0546 36.0033 13.1623 35.4487 12.3403 34.7999L12.3347 34.7936C8.95719 32.1471 6.9889 28.091 6.99996 23.8001Z" fill="white"/>
<path d="M20.991 36.4005C21.2243 36.4005 21.4588 36.3942 21.6945 36.3816C25.9094 36.1488 29.7278 33.8208 31.8652 30.1806C34.0026 26.5404 34.1751 22.0717 32.3247 18.2775C32.086 17.8008 31.5984 17.5 31.0654 17.5005H10.9355C10.402 17.5001 9.9142 17.8012 9.67547 18.2782C7.77586 22.1819 8.01857 26.7884 10.3179 30.4709C12.6172 34.1533 16.6496 36.3936 20.991 36.4005ZM10.9355 18.9005H31.0717C32.7134 22.272 32.5581 26.2416 30.6582 29.4747C28.7583 32.7078 25.366 34.7751 21.6217 34.9816C17.6562 35.2056 13.8692 33.3108 11.671 30.0028C9.47278 26.6949 9.19286 22.4695 10.9355 18.9005Z" fill="white"/>
<path d="M20.2999 31.4998C21.4597 31.4998 22.3999 30.5596 22.3999 29.3998C22.3999 28.24 21.4597 27.2998 20.2999 27.2998C19.1401 27.2998 18.2 28.24 18.2 29.3998C18.2 30.5596 19.1401 31.4998 20.2999 31.4998ZM20.2999 28.6998C20.6865 28.6998 20.9999 29.0132 20.9999 29.3998C20.9999 29.7864 20.6865 30.0998 20.2999 30.0998C19.9133 30.0998 19.5999 29.7864 19.5999 29.3998C19.5999 29.0132 19.9133 28.6998 20.2999 28.6998Z" fill="white"/>
<path d="M27.9999 29.4002C29.1597 29.4002 30.0999 28.46 30.0999 27.3002C30.0999 26.1404 29.1597 25.2002 27.9999 25.2002C26.8401 25.2002 25.8999 26.1404 25.8999 27.3002C25.8999 28.46 26.8401 29.4002 27.9999 29.4002ZM27.9999 26.6002C28.3865 26.6002 28.6999 26.9136 28.6999 27.3002C28.6999 27.6868 28.3865 28.0002 27.9999 28.0002C27.6133 28.0002 27.2999 27.6868 27.2999 27.3002C27.2999 26.9136 27.6133 26.6002 27.9999 26.6002Z" fill="white"/>
<path d="M29.3999 23.7999C29.7865 23.7999 30.0999 23.4865 30.0999 23.0999C30.0999 22.7133 29.7865 22.3999 29.3999 22.3999C29.0133 22.3999 28.7 22.7133 28.7 23.0999C28.7 23.4865 29.0133 23.7999 29.3999 23.7999Z" fill="white"/>
<path d="M24.5 32.1998C24.8866 32.1998 25.2 31.8864 25.2 31.4998C25.2 31.1132 24.8866 30.7998 24.5 30.7998C24.1134 30.7998 23.8 31.1132 23.8 31.4998C23.8 31.8864 24.1134 32.1998 24.5 32.1998Z" fill="white"/>
<path d="M14.6999 30.8004C15.0865 30.8004 15.3999 30.487 15.3999 30.1004C15.3999 29.7138 15.0865 29.4004 14.6999 29.4004C14.3133 29.4004 13.9999 29.7138 13.9999 30.1004C13.9999 30.487 14.3133 30.8004 14.6999 30.8004Z" fill="white"/>
<path d="M16.7999 27.3004C17.1865 27.3004 17.4999 26.987 17.4999 26.6004C17.4999 26.2138 17.1865 25.9004 16.7999 25.9004C16.4133 25.9004 16.0999 26.2138 16.0999 26.6004C16.0999 26.987 16.4133 27.3004 16.7999 27.3004Z" fill="white"/>
<path d="M12.6 27.3004C12.9866 27.3004 13.3 26.987 13.3 26.6004C13.3 26.2138 12.9866 25.9004 12.6 25.9004C12.2134 25.9004 11.9 26.2138 11.9 26.6004C11.9 26.987 12.2134 27.3004 12.6 27.3004Z" fill="white"/>
<path d="M23.0999 25.8998C24.6463 25.8998 25.8999 24.6462 25.8999 23.0998C25.8999 21.5534 24.6463 20.2998 23.0999 20.2998C21.5535 20.2998 20.2999 21.5534 20.2999 23.0998C20.2999 24.6462 21.5535 25.8998 23.0999 25.8998ZM23.0999 21.6998C23.8731 21.6998 24.4999 22.3266 24.4999 23.0998C24.4999 23.873 23.8731 24.4998 23.0999 24.4998C22.3267 24.4998 21.6999 23.873 21.6999 23.0998C21.6999 22.3266 22.3267 21.6998 23.0999 21.6998Z" fill="white"/>
<path d="M14.7 24.4998C15.8598 24.4998 16.8 23.5596 16.8 22.3998C16.8 21.24 15.8598 20.2998 14.7 20.2998C13.5402 20.2998 12.6 21.24 12.6 22.3998C12.6 23.5596 13.5402 24.4998 14.7 24.4998ZM14.7 21.6998C15.0866 21.6998 15.4 22.0132 15.4 22.3998C15.4 22.7864 15.0866 23.0998 14.7 23.0998C14.3134 23.0998 14 22.7864 14 22.3998C14 22.0132 14.3134 21.6998 14.7 21.6998Z" fill="white"/>
</g>
<defs>
<clipPath id="clip0_33_101">
<rect width="42" height="42" fill="white"/>
</clipPath>
</defs>
</svg>
