<svg width="42" height="42" viewBox="0 0 42 42" fill="none" xmlns="http://www.w3.org/2000/svg">
<g clip-path="url(#clip0_33_45)">
<path d="M21 7.80963e-06C15.8577 -0.00443069 10.8934 1.8832 7.05321 5.30321C6.66329 5.6496 6.58674 6.2297 6.87345 6.66539C7.16016 7.10108 7.72322 7.26028 8.19561 7.03921C10.231 6.08554 12.4523 5.59406 14.7 5.60001C21.0079 5.60208 26.6767 9.45069 29.0063 15.3126C31.3358 21.1746 29.8551 27.8645 25.2693 32.1957C20.6835 36.527 13.92 37.6237 8.20051 34.9636C7.72721 34.7407 7.16204 34.9003 6.87515 35.3377C6.58826 35.7752 6.66717 36.3571 7.06021 36.7024C10.8967 40.1233 15.8599 42.0095 21 42C21.2429 42 21.49 41.9958 21.7315 41.9867C32.4912 41.5446 41.2003 33.0875 41.958 22.3454C42.35 16.5454 40.3017 10.8452 36.3076 6.62131C32.332 2.40416 26.7957 0.00944996 21 7.80963e-06ZM40.5608 22.26C40.1063 29.3254 35.8768 35.5964 29.4964 38.6651C23.116 41.7337 15.5766 41.1229 9.77341 37.0671C11.4823 37.5895 13.2634 37.8369 15.05 37.8C21.6003 37.6519 27.4669 33.7093 30.0783 27.7002C32.6897 21.6911 31.5694 14.7122 27.2084 9.82234C22.8475 4.93251 16.0416 3.0241 9.77411 4.93361C15.9486 0.618662 24.0497 0.224095 30.6143 3.91858C37.1789 7.61306 41.0453 14.7428 40.5608 22.26Z" fill="white"/>
<path d="M1.0017 20.3647C0.710208 20.7388 0.710208 21.2632 1.0017 21.6373C1.9075 22.8203 6.72 28.7003 12.6 28.7003C18.48 28.7003 23.2925 22.8203 24.1983 21.6359C24.4896 21.2622 24.4896 20.7384 24.1983 20.3647C23.2925 19.1838 18.48 13.3003 12.6 13.3003C6.72 13.3003 1.9075 19.1838 1.0017 20.3647ZM22.5554 21.4413C21.0406 23.2403 17.1206 27.3003 12.6 27.3003C8.0794 27.3003 4.1587 23.2403 2.6446 21.4413C3.94546 20.0866 5.54577 19.0557 7.3171 18.4313C6.5028 20.75 7.2954 23.3287 9.27147 24.7897C11.2475 26.2507 13.9453 26.2527 15.9235 24.7946C17.9017 23.3364 18.698 20.7589 17.8871 18.439C19.6535 19.0671 21.2511 20.0946 22.5554 21.4413ZM8.4 20.3003C8.39716 19.4262 8.676 18.5745 9.1952 17.8713C11.4391 17.3752 13.7644 17.3767 16.0076 17.8755C16.5249 18.5779 16.8027 19.428 16.8 20.3003C16.8 22.6199 14.9196 24.5003 12.6 24.5003C10.2804 24.5003 8.4 22.6199 8.4 20.3003ZM12.6 14.7003C15.2516 14.7003 17.6939 16.1003 19.5706 17.6221C17.3906 16.5984 15.0083 16.0783 12.6 16.1003C10.1917 16.0783 7.80938 16.5984 5.6294 17.6221C7.5061 16.1003 9.9484 14.7003 12.6 14.7003Z" fill="white"/>
<path d="M13.3 11.2002V8.40019C13.3 8.0136 12.9866 7.7002 12.6 7.7002C12.2134 7.7002 11.9 8.0136 11.9 8.40019V11.2002C11.9 11.5868 12.2134 11.9002 12.6 11.9002C12.9866 11.9002 13.3 11.5868 13.3 11.2002Z" fill="white"/>
<path d="M8.40001 12.6001C8.62502 12.6002 8.83634 12.4921 8.96795 12.3096C9.09956 12.1271 9.13541 11.8924 9.06431 11.6789L8.36431 9.57894C8.24214 9.21167 7.84538 9.01297 7.47811 9.13514C7.11084 9.2573 6.91214 9.65407 7.03431 10.0213L7.73431 12.1213C7.82972 12.4078 8.09807 12.6008 8.40001 12.6001Z" fill="white"/>
<path d="M3.99492 12.1052C3.72026 11.8399 3.28366 11.8437 3.01365 12.1137C2.74364 12.3837 2.73984 12.8203 3.00512 13.095L4.40512 14.495C4.58087 14.677 4.84114 14.7499 5.08588 14.6859C5.33062 14.6218 5.52175 14.4307 5.58581 14.1859C5.64987 13.9412 5.57689 13.6809 5.39492 13.5052L3.99492 12.1052Z" fill="white"/>
<path d="M0.905113 17.2946C1.08087 17.4766 1.34113 17.5496 1.58587 17.4855C1.83061 17.4215 2.02174 17.2303 2.0858 16.9856C2.14986 16.7408 2.07688 16.4806 1.89491 16.3048L1.19491 15.6048C1.01916 15.4229 0.758899 15.3499 0.514158 15.4139C0.269417 15.478 0.078286 15.6691 0.0142251 15.9139C-0.0498357 16.1586 0.0231435 16.4189 0.205113 16.5946L0.905113 17.2946Z" fill="white"/>
<path d="M16.8 12.6001C17.1014 12.6002 17.3691 12.4073 17.4643 12.1213L18.1643 10.0213C18.2865 9.65407 18.0878 9.2573 17.7205 9.13514C17.3533 9.01297 16.9565 9.21167 16.8343 9.57894L16.1343 11.6789C16.0631 11.8927 16.0992 12.1276 16.2311 12.3101C16.363 12.4927 16.5748 12.6006 16.8 12.6001Z" fill="white"/>
<path d="M20.7949 14.495L22.1949 13.095C22.4602 12.8203 22.4564 12.3837 22.1864 12.1137C21.9164 11.8437 21.4798 11.8399 21.2051 12.1052L19.8051 13.5052C19.6231 13.6809 19.5502 13.9412 19.6142 14.1859C19.6783 14.4307 19.8694 14.6218 20.1142 14.6859C20.3589 14.7499 20.6192 14.677 20.7949 14.495Z" fill="white"/>
<path d="M24.9949 15.6049C24.7216 15.3316 24.2785 15.3316 24.0051 15.6049L23.3051 16.3049C23.1231 16.4806 23.0502 16.7409 23.1142 16.9856C23.1783 17.2304 23.3694 17.4215 23.6142 17.4855C23.8589 17.5496 24.1192 17.4766 24.2949 17.2947L24.9949 16.5947C25.2682 16.3213 25.2682 15.8782 24.9949 15.6049Z" fill="white"/>
<path d="M11.9 30.8001V33.6001C11.9 33.9867 12.2134 34.3001 12.6 34.3001C12.9866 34.3001 13.3 33.9867 13.3 33.6001V30.8001C13.3 30.4135 12.9866 30.1001 12.6 30.1001C12.2134 30.1001 11.9 30.4135 11.9 30.8001Z" fill="white"/>
<path d="M7.73571 29.8791L7.03571 31.9791C6.91354 32.3463 7.11224 32.7431 7.47951 32.8653C7.84678 32.9874 8.24354 32.7887 8.36571 32.4215L9.06571 30.3215C9.14474 30.0839 9.09101 29.8222 8.92478 29.6349C8.75854 29.4477 8.50504 29.3634 8.25977 29.4137C8.01451 29.4641 7.81474 29.6415 7.73571 29.8791Z" fill="white"/>
<path d="M4.40513 27.5051L3.00513 28.9051C2.82316 29.0808 2.75018 29.3411 2.81424 29.5858C2.8783 29.8306 3.06944 30.0217 3.31418 30.0858C3.55892 30.1498 3.81918 30.0769 3.99493 29.8949L5.39493 28.4949C5.66021 28.2202 5.65642 27.7836 5.3864 27.5136C5.11639 27.2436 4.6798 27.2398 4.40513 27.5051Z" fill="white"/>
<path d="M0.905113 24.7053L0.205113 25.4053C0.0231435 25.581 -0.0498357 25.8413 0.0142251 26.086C0.078286 26.3308 0.269417 26.5219 0.514158 26.586C0.758899 26.65 1.01916 26.5771 1.19491 26.3951L1.89491 25.6951C2.16019 25.4204 2.1564 24.9838 1.88639 24.7138C1.61637 24.4438 1.17978 24.44 0.905113 24.7053Z" fill="white"/>
<path d="M16.5788 29.4363C16.2122 29.5584 16.0139 29.9544 16.1357 30.3211L16.8357 32.4211C16.9579 32.7884 17.3546 32.9871 17.7219 32.8649C18.0892 32.7427 18.2879 32.346 18.1657 31.9787L17.4657 29.8787C17.4069 29.7023 17.2804 29.5565 17.114 29.4735C16.9476 29.3905 16.7551 29.3771 16.5788 29.4363Z" fill="white"/>
<path d="M20.7949 27.5051C20.5202 27.2398 20.0837 27.2436 19.8136 27.5136C19.5436 27.7836 19.5398 28.2202 19.8051 28.4949L21.2051 29.8949C21.4798 30.1602 21.9164 30.1564 22.1864 29.8864C22.4564 29.6164 22.4602 29.1798 22.1949 28.9051L20.7949 27.5051Z" fill="white"/>
<path d="M24.2949 24.7053C24.0202 24.44 23.5836 24.4438 23.3136 24.7138C23.0436 24.9838 23.0398 25.4204 23.3051 25.6951L24.0051 26.3951C24.2798 26.6604 24.7164 26.6566 24.9864 26.3866C25.2564 26.1165 25.2602 25.6799 24.9949 25.4053L24.2949 24.7053Z" fill="white"/>
<path d="M12.6 23.0999C13.7598 23.0999 14.7 22.1597 14.7 20.9999C14.7 19.8401 13.7598 18.8999 12.6 18.8999C11.4402 18.8999 10.5 19.8401 10.5 20.9999C10.5 22.1597 11.4402 23.0999 12.6 23.0999ZM12.6 20.2999C12.9866 20.2999 13.3 20.6133 13.3 20.9999C13.3 21.3865 12.9866 21.6999 12.6 21.6999C12.2134 21.6999 11.9 21.3865 11.9 20.9999C11.9 20.6133 12.2134 20.2999 12.6 20.2999Z" fill="white"/>
</g>
<defs>
<clipPath id="clip0_33_45">
<rect width="42" height="42" fill="white"/>
</clipPath>
</defs>
</svg>
